<svg width="34" height="26" viewBox="0 0 34 26" fill="none" xmlns="http://www.w3.org/2000/svg">
<path fill-rule="evenodd" clip-rule="evenodd" d="M6.91186 5.51431C8.18629 3.83796 9.9017 3 12.059 3C13.4963 3 14.7131 3.26419 15.7103 3.79126C16.7076 4.31963 17.5242 5.05642 18.1616 6.00334C18.7982 6.95069 19.2641 8.06797 19.5586 9.3556C19.8526 10.6445 20 12.0334 20 13.5233C20 17.1549 19.3784 19.8093 18.1371 21.4857C16.8949 23.1616 15.3102 24 13.3829 24C11.8467 24 10.5473 23.7285 9.48521 23.1854C8.42311 22.6427 7.55701 21.9047 6.88736 20.9729C6.21726 20.042 5.73544 18.9407 5.4419 17.6673C5.14654 16.3952 5 15.0133 5 13.5233C5 9.86063 5.63698 7.19066 6.91186 5.51431ZM0.751535 18.3667C1.25299 19.9571 2.01983 21.3171 3.05423 22.4458C4.08775 23.575 5.38796 24.4495 6.95486 25.0693C8.52089 25.6895 10.3693 26 12.4998 26C14.4108 26 16.142 25.7134 17.6928 25.1406C19.2435 24.5682 20.559 23.7336 21.6397 22.6363C22.72 21.5395 23.5511 20.1879 24.1304 18.5816C24.7097 16.9757 25 15.1226 25 13.0237C25 11.0524 24.7569 9.26309 24.2716 7.65678C23.7864 6.05091 23.0418 4.68293 22.0393 3.55373C21.0364 2.42541 19.7436 1.55049 18.1619 0.930296C16.5801 0.309656 14.6927 0 12.4998 0C10.6199 0 8.90474 0.286177 7.35402 0.85853C5.8033 1.43088 4.48691 2.26549 3.40661 3.36324C2.32499 4.4601 1.48733 5.82011 0.892311 7.44192C0.296854 9.06374 0 10.9243 0 13.0237C0 14.9959 0.249637 16.7772 0.751535 18.3667ZM31 20C32.6572 20 34 21.3434 34 23C34 24.6566 32.6572 26 31 26C29.3432 26 28 24.6566 28 23C28 21.3434 29.3432 20 31 20Z" fill="black"/>
</svg>
