<svg width="161" height="29" viewBox="0 0 161 29" fill="none" xmlns="http://www.w3.org/2000/svg">
<path fill-rule="evenodd" clip-rule="evenodd" d="M5.1516 13.7671C6.10121 12.5205 7.38021 11.8974 8.98791 11.8974C10.0596 11.8974 10.9666 12.0939 11.7099 12.4858C12.4529 12.8787 13.062 13.4266 13.5368 14.1307C14.0116 14.8351 14.3585 15.6659 14.5784 16.6234C14.7975 17.5818 14.9074 18.6145 14.9074 19.7225C14.9074 22.4229 14.4441 24.3967 13.5188 25.6432C12.5929 26.8894 11.4116 27.5128 9.97506 27.5128C8.82998 27.5128 7.86144 27.3109 7.06976 26.9071C6.27808 26.5036 5.63249 25.9548 5.13368 25.2619C4.63385 24.5697 4.2747 23.7508 4.05556 22.8039C3.83608 21.858 3.72685 20.8304 3.72685 19.7225C3.72685 16.9989 4.20132 15.0136 5.1516 13.7671ZM0.560172 23.324C0.933619 24.5065 1.50552 25.5178 2.27621 26.3572C3.04689 27.1968 4.0157 27.8471 5.18395 28.3079C6.35122 28.7691 7.729 29 9.31697 29C10.7413 29 12.0318 28.7869 13.1877 28.3609C14.3435 27.9354 15.3241 27.3147 16.1293 26.4988C16.9348 25.6832 17.554 24.6782 17.9861 23.4837C18.4182 22.2896 18.6343 20.9117 18.6343 19.351C18.6343 17.8851 18.4531 16.5546 18.0914 15.3602C17.7296 14.1661 17.1747 13.1488 16.4275 12.3092C15.6796 11.4702 14.7163 10.8196 13.5376 10.3584C12.3583 9.89692 10.9515 9.66667 9.31697 9.66667C7.9154 9.66667 6.63733 9.87947 5.48147 10.3051C4.32561 10.7307 3.34441 11.3513 2.53918 12.1675C1.73298 12.9832 1.10861 13.9944 0.665102 15.2004C0.221266 16.4064 0 17.7899 0 19.351C0 20.8175 0.186072 22.142 0.560172 23.324ZM30.239 28.6525L32.0509 26.472L28.5655 26.6717C27.7808 26.6717 27.1346 26.5449 26.6276 26.2897C26.1199 26.0348 25.7221 25.6527 25.4335 25.1429C25.145 24.6338 24.9493 24.0136 24.8455 23.2838C24.7417 22.5542 24.6897 21.7147 24.6897 20.7647C24.6897 18.9811 24.707 17.2613 24.7417 15.6048C24.7764 13.9485 24.8163 12.2168 24.8629 10.4103H18.6343V12.1471H21.264C21.264 13.6065 21.2296 15.1356 21.1602 16.7338C21.0908 18.3322 21.0564 19.8961 21.0564 21.4249C21.0564 22.9311 21.1949 24.1698 21.4719 25.1429C21.7482 26.1157 22.1518 26.8924 22.683 27.4712C23.2132 28.0504 23.8706 28.4499 24.655 28.6699C25.439 28.8897 26.5058 29 27.3891 29C28.8785 29 30.239 28.6525 30.239 28.6525ZM48.5972 13.5967H52.9213V10.4103H49.5191L46.258 13.9864H46.1162V10.4103H39.7718V12.1802H42.3943V27.2294H40.2375H39.7718H37.6147V10.4103H31.3056V12.1802H33.8929V22.8033L33.9439 29H39.7718H40.2375H49.1998V27.2294H46.1162V16.2173L48.5972 13.5967ZM68.2061 26.312C67.4705 26.7801 66.5336 27.0133 65.3948 27.0133C64.7062 27.0133 64.1493 26.9442 63.722 26.8042C63.2951 26.6645 62.927 26.4794 62.619 26.2461L61.9072 25.5132V22.8628H59.6296V27.5101C60.2496 27.9123 61.1018 28.2611 62.1874 28.5566C63.2729 28.8521 64.3879 29 65.5326 29C66.5577 29 67.5299 28.8755 68.4486 28.6274C69.3666 28.3791 70.1654 28.0243 70.8458 27.5631C71.5252 27.1019 72.0619 26.5406 72.4558 25.8782C72.849 25.2164 73.0463 24.4594 73.0463 23.6076C73.0463 22.6856 72.8087 21.8937 72.3342 21.2309C71.8593 20.5691 71.2668 19.9841 70.555 19.4751C69.8431 18.9665 69.0719 18.512 68.2417 18.1091C67.4113 17.7075 66.6403 17.302 65.9285 16.8932C65.2167 16.4841 64.6235 16.0463 64.1493 15.5786C63.6741 15.1115 63.4375 14.562 63.4375 13.9312C63.4375 13.277 63.7161 12.7338 64.2736 12.3016C64.8307 11.8691 65.6794 11.653 66.8185 11.653C67.2213 11.653 67.601 11.6764 67.9569 11.7228C68.3131 11.7693 68.6449 11.8269 68.9536 11.8968L69.6297 12.663V15.4132H71.9072V10.6243C71.4776 10.4823 71.0599 10.3528 70.6538 10.2339C70.248 10.116 69.8187 10.0158 69.3653 9.9325C68.9116 9.85015 68.4106 9.78492 67.862 9.73749C67.3131 9.69038 66.681 9.66667 65.9652 9.66667C65.1057 9.66667 64.2941 9.779 63.5307 10.0033C62.7667 10.2286 62.1044 10.5419 61.544 10.9435C60.9835 11.346 60.5358 11.825 60.2017 12.3803C59.8676 12.936 59.7007 13.5573 59.7007 14.2428C59.7007 15.2597 59.9376 16.129 60.4125 16.8498C60.8867 17.5718 61.4802 18.198 62.192 18.73C62.9035 19.262 63.6741 19.7354 64.5049 20.1491C65.335 20.5632 66.1063 20.9749 66.8185 21.3841C67.5299 21.7932 68.1228 22.2379 68.5976 22.7165C69.0719 23.1958 69.3095 23.7512 69.3095 24.3827C69.3095 25.2013 68.9413 25.8443 68.2061 26.312ZM102.471 27.2294V10.4103H96.1528V12.1802H98.7437V22.8033L98.7948 29H105.097V27.2294H102.471ZM92.0312 26.2757C91.5059 26.0195 91.0939 25.6355 90.7956 25.1231C90.497 24.6113 90.2946 23.988 90.1872 23.2544C90.0798 22.5211 90.0256 21.6772 90.0256 20.7224C90.0256 18.9296 90.0438 17.201 90.0798 15.5359C90.1157 13.8712 90.1569 12.1306 90.2051 10.3147H87.8739H83.7599H79.0423V5.94872L75.2847 9.18801V10.3147V12.5496H75.2824V23.7957C75.2824 25.6589 75.706 26.9918 76.5536 27.7948C77.4008 28.5985 78.6244 29 80.2237 29C80.8442 29 81.447 28.9299 82.0319 28.7902C82.6167 28.6507 83.1481 28.4759 83.6256 28.2664C84.1027 28.0569 84.5263 27.8299 84.897 27.5853C85.2665 27.3408 85.5594 27.1141 85.7739 26.9043L84.8788 25.5421C84.4252 25.8447 83.9298 26.1246 83.3928 26.3805C82.8558 26.637 82.2167 26.7645 81.4773 26.7645C80.6177 26.7645 79.997 26.4622 79.6152 25.8567C79.2329 25.2512 79.0423 24.215 79.0423 22.7481V12.5496H86.4784C86.4711 13.8692 86.4375 15.2408 86.3737 16.6707C86.3019 18.2774 86.2663 19.8493 86.2663 21.386C86.2663 22.8999 86.4096 24.1449 86.6962 25.1231C86.9822 26.1009 87.3995 26.8815 87.9491 27.4634C88.498 28.0455 89.1787 28.447 89.99 28.6682C90.8013 28.8891 91.9052 29 92.8192 29C94.3607 29 95.7682 28.6507 95.7682 28.6507L97.6435 26.459L94.0365 26.6597C93.2249 26.6597 92.5559 26.5323 92.0312 26.2757ZM132.279 26.8571V10.1709H125.911V11.9269H128.543V26.8571H124.665H124.189H122.175V0L118.439 2.88989V10.4165C118.106 10.3232 117.798 10.2355 117.514 10.1529C117.229 10.0714 116.932 10.0071 116.625 9.95982C116.316 9.91317 115.984 9.87794 115.628 9.85445C115.272 9.83129 114.845 9.81955 114.348 9.81955C112.948 9.81955 111.679 10.0303 110.54 10.4517C109.402 10.8732 108.429 11.494 107.623 12.3134C106.817 13.1335 106.194 14.1464 105.755 15.3524C105.316 16.5587 105.097 17.9464 105.097 19.5148C105.097 22.7707 105.755 25.1654 107.072 26.6992C107.748 27.487 108.6 28.069 109.624 28.4523C109.817 28.5358 110.019 28.6079 110.23 28.6663C110.499 28.7403 110.802 28.801 111.118 28.8506C111.138 28.8539 111.157 28.8571 111.178 28.8604C111.402 28.894 111.632 28.9214 111.863 28.9432C111.978 28.954 112.094 28.9631 112.212 28.971C112.47 28.9876 112.723 28.9974 112.966 28.999C112.976 28.999 112.985 29 112.996 29L112.997 28.9993C113.011 28.9993 113.027 29 113.041 29C114.573 29 114.714 28.6487 114.714 28.6487L117.071 26.4112L114.828 26.5981L113.796 26.6464C112.963 26.6464 112.248 26.4592 111.653 26.0843C111.058 25.7099 110.569 25.2006 110.189 24.5561C109.807 23.9124 109.528 23.1569 109.35 22.2902C109.171 21.4244 109.082 20.499 109.082 19.5148C109.082 18.2977 109.201 17.1909 109.439 16.1953C109.677 15.2004 110.028 14.3512 110.492 13.6483C110.956 12.9459 111.528 12.4074 112.206 12.0326C112.885 11.6581 113.665 11.4705 114.546 11.4705C115.498 11.4705 116.266 11.5292 116.85 11.6463C117.433 11.7634 117.963 11.9393 118.439 12.1728V22.5362L118.429 28.6138H124.189H124.665H134.912V26.8571H132.279ZM129.694 6.69231C130.929 6.69231 131.931 5.6936 131.931 4.46139C131.931 3.22947 130.929 2.23077 129.694 2.23077C128.459 2.23077 127.458 3.22947 127.458 4.46139C127.458 5.6936 128.459 6.69231 129.694 6.69231ZM140.809 13.7671C141.759 12.5205 143.038 11.8974 144.646 11.8974C145.717 11.8974 146.624 12.0939 147.367 12.4858C148.111 12.8787 148.719 13.4266 149.195 14.1307C149.669 14.8351 150.016 15.6659 150.236 16.6234C150.455 17.5818 150.565 18.6145 150.565 19.7225C150.565 22.4229 150.102 24.3967 149.176 25.6432C148.25 26.8894 147.069 27.5128 145.633 27.5128C144.488 27.5128 143.519 27.3109 142.727 26.9071C141.936 26.5036 141.29 25.9548 140.791 25.2619C140.292 24.5697 139.932 23.7508 139.714 22.8039C139.493 21.858 139.384 20.8304 139.384 19.7225C139.384 16.9989 139.859 15.0136 140.809 13.7671ZM136.218 23.324C136.591 24.5065 137.163 25.5178 137.934 26.3572C138.704 27.1968 139.673 27.8471 140.841 28.3079C142.009 28.7691 143.386 29 144.974 29C146.399 29 147.689 28.7869 148.845 28.3609C150.001 27.9354 150.981 27.3147 151.787 26.4988C152.592 25.6832 153.212 24.6782 153.644 23.4837C154.075 22.2896 154.292 20.9117 154.292 19.351C154.292 17.8851 154.11 16.5546 153.749 15.3602C153.387 14.1661 152.832 13.1488 152.085 12.3092C151.337 11.4702 150.374 10.8196 149.195 10.3584C148.016 9.89692 146.609 9.66667 144.974 9.66667C143.573 9.66667 142.295 9.87947 141.139 10.3051C139.983 10.7307 139.002 11.3513 138.197 12.1675C137.39 12.9832 136.766 13.9944 136.323 15.2004C135.879 16.4064 135.657 17.7899 135.657 19.351C135.657 20.8175 135.843 22.142 136.218 23.324ZM158.764 24.5385C159.999 24.5385 161 25.5374 161 26.7692C161 28.0011 159.999 29 158.764 29C157.529 29 156.528 28.0011 156.528 26.7692C156.528 25.5374 157.529 24.5385 158.764 24.5385Z" fill="white"/>
</svg>
