<svg width="84" height="467" viewBox="0 0 84 467" fill="none" xmlns="http://www.w3.org/2000/svg">
<path fill-rule="evenodd" clip-rule="evenodd" d="M39.877 451.931C36.2664 449.177 34.4615 445.468 34.4615 440.806C34.4615 437.699 35.0306 435.069 36.1658 432.913C37.3038 430.759 38.8907 428.992 40.9303 427.616C42.9707 426.239 45.3772 425.233 48.1505 424.595C50.9267 423.96 53.918 423.641 57.1272 423.641C64.9491 423.641 70.6663 424.984 74.2769 427.668C77.8865 430.353 79.6923 433.778 79.6923 437.944C79.6923 441.264 79.1075 444.073 77.9378 446.369C76.769 448.664 75.1793 450.536 73.1724 451.983C71.1673 453.432 68.7953 454.474 66.0527 455.109C63.3128 455.746 60.3364 456.062 57.1272 456.062C49.2383 456.062 43.4876 454.687 39.877 451.931ZM67.5591 465.245C70.9844 464.162 73.9137 462.504 76.3449 460.269C78.777 458.034 80.6605 455.225 81.9953 451.837C83.3311 448.452 84 444.457 84 439.852C84 435.722 83.3827 431.98 82.1489 428.628C80.9162 425.276 79.1186 422.433 76.7551 420.098C74.3927 417.762 71.4816 415.966 68.0218 414.713C64.563 413.46 60.5718 412.834 56.051 412.834C51.8051 412.834 47.9513 413.359 44.4915 414.408C41.0327 415.457 38.0863 417.066 35.6542 419.233C33.224 421.402 31.3395 424.195 30.0037 427.613C28.667 431.033 28 435.112 28 439.852C28 443.916 28.6164 447.623 29.8491 450.974C31.0819 454.326 32.8795 457.171 35.2439 459.506C37.6064 461.844 40.5356 463.655 44.0288 464.941C47.5219 466.228 51.5293 466.87 56.051 466.87C60.2989 466.87 64.1356 466.33 67.5591 465.245ZM82.9934 379.182L76.6774 373.928L77.2559 384.035C77.2559 386.311 76.8886 388.184 76.1493 389.655C75.411 391.127 74.3044 392.28 72.8278 393.117C71.353 393.954 69.5567 394.521 67.4426 394.822C65.3295 395.123 62.8976 395.274 60.1462 395.274C54.9797 395.274 49.9982 395.224 45.2 395.123C40.4027 395.023 35.3867 394.907 30.1538 394.772V412.834H35.1848L35.1848 405.208C39.412 405.208 43.8411 405.308 48.4702 405.509C53.1002 405.71 57.6302 405.81 62.0584 405.81C66.4211 405.81 70.009 405.408 72.8278 404.605C75.6456 403.804 77.8952 402.634 79.5719 401.093C81.2495 399.556 82.4065 397.649 83.0439 395.375C83.6804 393.101 84 390.008 84 387.446C84 383.128 82.9934 379.182 82.9934 379.182ZM39.3836 325.947V313.408H30.1538L30.1538 323.274L40.5122 332.73V333.141H30.1538V351.539H35.2806V343.934H78.8713V350.188L78.8713 351.539V357.794H30.1538V376.089H35.2806V368.587H66.051L84 368.439V351.539L84 350.188V324.2H78.8713V333.141H46.9743L39.3836 325.947ZM76.2141 269.085C77.57 271.218 78.2455 273.935 78.2455 277.237C78.2455 279.234 78.0452 280.849 77.6396 282.088C77.2351 283.326 76.6988 284.393 76.0233 285.286L73.9003 287.351H66.2232V293.955H79.6844C80.8494 292.157 81.8598 289.686 82.7157 286.538C83.5716 283.39 84 280.157 84 276.837C84 273.865 83.6393 271.046 82.9209 268.382C82.2014 265.72 81.1738 263.403 79.838 261.43C78.5022 259.46 76.8763 257.904 74.9575 256.762C73.0406 255.621 70.848 255.049 68.3806 255.049C65.7099 255.049 63.4161 255.738 61.4964 257.114C59.5795 258.491 57.8849 260.209 56.4108 262.274C54.9376 264.338 53.6208 266.574 52.4539 268.981C51.2908 271.39 50.1162 273.625 48.9321 275.689C47.7471 277.753 46.479 279.474 45.1241 280.849C43.7711 282.227 42.1796 282.913 40.3524 282.913C38.4575 282.913 36.8841 282.105 35.6322 280.488C34.3794 278.873 33.7535 276.412 33.7535 273.109C33.7535 271.941 33.8213 270.84 33.9558 269.808C34.0903 268.774 34.2573 267.812 34.4596 266.917L36.6789 264.957H44.6451V258.352H30.7737C30.3625 259.598 29.9875 260.809 29.643 261.987C29.3015 263.164 29.0114 264.409 28.77 265.723C28.5315 267.039 28.3425 268.492 28.2051 270.083C28.0687 271.674 28 273.507 28 275.583C28 278.075 28.3254 280.429 28.9751 282.643C29.6278 284.858 30.5352 286.778 31.6983 288.404C32.8643 290.029 34.2516 291.327 35.8603 292.296C37.4699 293.265 39.2695 293.749 41.255 293.749C44.2005 293.749 46.7185 293.062 48.8062 291.685C50.8977 290.31 52.7115 288.589 54.2525 286.525C55.7934 284.461 57.1645 282.227 58.363 279.818C59.5623 277.41 60.755 275.174 61.9401 273.109C63.1251 271.046 64.4132 269.326 65.7996 267.949C67.1879 266.574 68.7966 265.885 70.6257 265.885C72.9967 265.885 74.8592 266.953 76.2141 269.085ZM78.8713 169.724H30.1538V188.045H35.2806V180.532H66.051L84 180.383V162.108H78.8713V169.724ZM76.109 199.997C75.3669 201.52 74.2546 202.715 72.7703 203.579C71.288 204.445 69.4824 205.033 67.3575 205.344C65.2335 205.655 62.7891 205.813 60.0235 205.813C54.8305 205.813 49.8235 205.759 45.0006 205.655C40.1786 205.551 35.1368 205.432 29.8771 205.292L29.8771 212.052V223.982V237.662H17.2308L26.6136 248.558H29.8771H36.3505V248.565H68.9254C74.3222 248.565 78.1832 247.337 80.5092 244.879C82.837 242.422 84 238.874 84 234.236C84 232.437 83.7971 230.689 83.3922 228.993C82.9883 227.297 82.4819 225.756 81.8751 224.371C81.2682 222.988 80.6106 221.759 79.9023 220.684C79.194 219.613 78.5374 218.764 77.9296 218.142L73.9841 220.737C74.8605 222.052 75.6712 223.489 76.4124 225.046C77.1555 226.603 77.5247 228.457 77.5247 230.601C77.5247 233.093 76.6491 234.894 74.8953 236C73.1414 237.109 70.14 237.662 65.8911 237.662H36.3505V216.099C40.1729 216.12 44.1457 216.217 48.2875 216.402C52.9414 216.611 57.4947 216.714 61.9456 216.714C66.3307 216.714 69.9371 216.298 72.7703 215.467C75.6026 214.638 77.8638 213.428 79.5491 211.834C81.2353 210.242 82.3983 208.268 83.039 205.916C83.6787 203.563 84 200.362 84 197.711C84 193.241 82.9883 189.16 82.9883 189.16L76.6398 183.722L77.2212 194.181C77.2212 196.535 76.8521 198.475 76.109 199.997ZM77.7931 83.2849H29.4605L29.4605 101.752H34.5468V94.1183H77.7931V105.364V106.744V112.586H0L8.37071 123.419H30.172C29.9017 124.384 29.6476 125.277 29.4085 126.101C29.1723 126.926 28.9861 127.788 28.8491 128.681C28.714 129.575 28.612 130.537 28.5439 131.569C28.4769 132.602 28.4428 133.84 28.4428 135.283C28.4428 139.343 29.0532 143.022 30.274 146.324C31.4948 149.624 33.2929 152.446 35.6665 154.783C38.0419 157.122 40.9757 158.928 44.469 160.199C47.9632 161.472 51.9827 162.108 56.5257 162.108C65.9565 162.108 72.8929 160.199 77.3357 156.382C79.6176 154.422 81.3033 151.949 82.4135 148.981C82.6554 148.42 82.8643 147.837 83.0334 147.222C83.2479 146.444 83.4236 145.565 83.5672 144.649C83.5767 144.592 83.5861 144.534 83.5956 144.476C83.6929 143.825 83.7723 143.158 83.8356 142.487C83.8668 142.154 83.8932 141.818 83.9159 141.476C83.9641 140.729 83.9924 139.993 83.9972 139.291C83.9972 139.261 84 139.233 84 139.204L83.9981 139.201C83.9981 139.159 84 139.114 84 139.072C84 134.631 82.9824 134.222 82.9824 134.222L76.5014 127.385L77.0428 133.889L77.1827 136.882C77.1827 139.299 76.6403 141.371 75.5546 143.098C74.4699 144.824 72.995 146.24 71.1279 147.343C69.2636 148.449 67.0753 149.258 64.5647 149.776C62.057 150.295 59.3764 150.554 56.5257 150.554C53.0003 150.554 49.7943 150.209 46.9106 149.518C44.0287 148.828 41.5691 147.81 39.5329 146.463C37.4986 145.118 35.9386 143.46 34.8529 141.492C33.7682 139.525 33.2249 137.264 33.2249 134.709C33.2249 131.947 33.395 129.721 33.7342 128.027C34.0734 126.337 34.5827 124.801 35.2592 123.419H65.2772L82.8813 123.448L82.8813 106.744V105.364V75.6502H77.7931V83.2849ZM19.3846 90.7807C19.3846 87.1998 16.4918 84.296 12.9226 84.296C9.35433 84.296 6.46154 87.1998 6.46154 90.7807C6.46154 94.3616 9.35433 97.2646 12.9226 97.2646C16.4918 97.2646 19.3846 94.3616 19.3846 90.7807ZM39.877 58.5493C36.2664 55.7947 34.4615 52.0869 34.4615 47.4241C34.4615 44.3174 35.0306 41.6874 36.1658 39.532C37.3038 37.3766 38.8907 35.6114 40.9303 34.2336C42.9707 32.8578 45.3772 31.8507 48.1505 31.2143C50.9267 30.5789 53.918 30.2601 57.1272 30.2601C64.9491 30.2601 70.6663 31.6036 74.2769 34.2866C77.8865 36.9716 79.6923 40.3969 79.6923 44.5626C79.6923 47.883 79.1075 50.6915 77.9378 52.9872C76.769 55.2828 75.1793 57.1548 73.1724 58.6022C71.1673 60.0506 68.7953 61.092 66.0527 61.7265C63.3128 62.3649 60.3364 62.6816 57.1272 62.6816C49.2383 62.6816 43.4876 61.3048 39.877 58.5493ZM67.5591 71.8644C70.9844 70.7805 73.9137 69.1231 76.3449 66.8873C78.777 64.6534 80.6605 61.8431 81.9953 58.4563C83.3311 55.0715 84 51.0762 84 46.4713C84 42.3409 83.3827 38.5989 82.1489 35.2471C80.9162 31.8953 79.1186 29.0519 76.7551 26.7159C74.3927 24.381 71.4816 22.5846 68.0218 21.3325C64.563 20.0804 60.5718 19.453 56.051 19.453C51.8051 19.453 47.9513 19.9784 44.4915 21.0273C41.0327 22.0762 38.0863 23.6855 35.6542 25.8523C33.224 28.02 31.3395 30.8143 30.0037 34.2332C28.667 37.652 28 41.7314 28 46.4713C28 50.5347 28.6164 54.2418 29.8491 57.5936C31.0819 60.9454 32.8795 63.7906 35.2439 66.1256C37.6064 68.4635 40.5356 70.274 44.0288 71.5601C47.5219 72.8472 51.5293 73.4888 56.051 73.4888C60.2989 73.4888 64.1356 72.9492 67.5591 71.8644ZM71.0769 6.48434C71.0769 2.90237 73.9704 6.10352e-05 77.5385 6.10352e-05C81.1065 6.10352e-05 84 2.90237 84 6.48434C84 10.0655 81.1065 12.9687 77.5385 12.9687C73.9704 12.9687 71.0769 10.0655 71.0769 6.48434Z" fill="black"/>
</svg>
